<svg id="svg" version="1.1" xmlns="http://www.w3.org/2000/svg" xmlns:xlink="http://www.w3.org/1999/xlink" width="400" height="400" viewBox="0, 0, 400,400"><g id="svgg"><path id="path0" d="M82.616 104.889 C 82.504 105.390,82.454 144.950,82.506 192.800 L 82.600 279.800 100.698 279.904 L 118.795 280.008 118.898 248.904 L 119.000 217.800 138.800 217.553 C 149.690 217.417,159.050 217.201,159.600 217.071 C 160.150 216.942,161.860 216.636,163.400 216.391 C 176.722 214.273,186.368 210.106,195.800 202.394 C 201.082 198.075,206.585 190.914,209.243 184.901 C 209.900 183.415,210.605 181.840,210.809 181.400 C 214.120 174.282,214.834 155.586,212.184 145.400 C 207.113 125.905,190.912 111.311,169.273 106.745 C 158.482 104.468,155.870 104.337,117.510 104.149 L 82.821 103.979 82.616 104.889 M150.093 132.436 C 158.841 133.749,165.522 136.845,170.771 142.020 C 174.885 146.076,177.612 153.878,177.590 161.531 C 177.564 170.943,173.855 178.761,166.933 184.000 C 166.131 184.606,165.402 185.051,162.932 186.438 C 157.237 189.637,150.567 190.492,132.600 190.326 L 119.000 190.200 118.897 161.600 C 118.840 145.870,118.879 132.775,118.984 132.500 C 119.234 131.846,145.795 131.791,150.093 132.436 M306.800 146.030 C 292.804 147.183,280.360 155.728,273.100 169.170 C 271.594 171.957,271.406 170.802,271.294 158.067 L 271.188 146.000 254.393 146.000 L 237.598 146.000 237.699 212.900 L 237.800 279.800 255.300 279.904 L 272.800 280.008 272.810 265.104 C 272.842 216.785,273.190 197.522,274.076 195.000 C 275.509 190.921,279.394 185.870,283.496 182.753 C 284.763 181.790,285.890 180.912,286.000 180.801 C 286.735 180.063,291.318 177.769,294.307 176.644 C 298.945 174.897,302.533 174.368,311.300 174.136 L 318.800 173.938 318.800 160.025 L 318.800 146.111 316.700 145.859 C 314.234 145.563,311.993 145.602,306.800 146.030 " stroke="none" fill="#6be266" fill-rule="evenodd"></path><path id="path1" d="M0.000 200.000 L 0.000 400.000 200.000 400.000 L 400.000 400.000 400.000 200.000 L 400.000 0.000 200.000 0.000 L 0.000 0.000 0.000 200.000 M157.200 104.217 C 168.061 105.442,173.420 106.617,179.800 109.173 C 197.670 116.330,209.432 129.594,213.521 147.200 C 215.223 154.531,215.089 168.160,213.240 175.800 C 212.180 180.183,212.049 180.554,209.956 185.101 C 204.008 198.022,190.600 209.696,176.800 213.968 C 175.150 214.479,173.350 215.036,172.800 215.206 C 172.250 215.375,170.720 215.724,169.400 215.981 C 168.080 216.238,166.447 216.617,165.772 216.824 C 165.096 217.031,163.779 217.200,162.845 217.200 C 161.911 217.200,160.754 217.422,160.274 217.693 C 159.628 218.058,154.228 218.241,139.600 218.393 L 119.800 218.600 119.697 249.183 C 119.628 269.761,119.458 279.902,119.177 280.183 C 118.761 280.599,82.988 280.563,82.312 280.145 C 81.934 279.912,81.889 104.245,82.267 103.867 C 82.834 103.299,151.923 103.622,157.200 104.217 M119.784 132.900 C 119.679 133.175,119.640 146.090,119.696 161.600 L 119.800 189.800 130.200 189.929 C 152.463 190.204,161.823 188.149,168.737 181.465 C 180.441 170.151,179.373 149.149,166.592 139.280 C 164.913 137.983,159.270 135.300,156.400 134.433 C 150.326 132.599,120.378 131.345,119.784 132.900 M319.142 145.364 C 319.662 145.686,319.808 173.467,319.294 174.243 C 319.103 174.530,316.042 174.774,310.600 174.934 C 302.627 175.169,301.652 175.294,296.200 176.779 C 287.269 179.211,278.338 186.794,274.877 194.883 L 273.800 197.400 273.600 238.800 L 273.400 280.200 255.348 280.304 C 238.402 280.402,237.284 280.365,237.111 279.704 C 236.599 277.742,236.755 145.992,237.270 145.801 C 238.723 145.262,271.579 145.367,271.788 145.912 C 271.904 146.216,272.003 151.626,272.007 157.933 L 272.013 169.400 272.858 168.000 C 282.617 151.824,295.680 144.518,314.042 144.967 C 316.595 145.030,318.890 145.208,319.142 145.364 " stroke="none" fill="#0c1410" fill-rule="evenodd"></path><path id="path2" d="M145.511 103.893 C 146.451 103.978,147.891 103.977,148.711 103.891 C 149.530 103.805,148.760 103.736,147.000 103.737 C 145.240 103.739,144.570 103.809,145.511 103.893 M311.312 145.495 C 312.364 145.577,313.984 145.576,314.912 145.492 C 315.840 145.408,314.980 145.341,313.000 145.342 C 311.020 145.343,310.260 145.412,311.312 145.495 M237.375 146.121 C 237.265 146.408,237.226 148.973,237.289 151.821 L 237.404 157.000 237.602 151.299 C 237.797 145.684,237.771 145.089,237.375 146.121 M280.786 157.900 L 278.600 160.200 280.900 158.014 C 282.165 156.811,283.200 155.776,283.200 155.714 C 283.200 155.417,282.818 155.763,280.786 157.900 M237.394 214.400 C 237.394 244.210,237.442 256.405,237.500 241.500 C 237.558 226.595,237.558 202.205,237.500 187.300 C 237.442 172.395,237.394 184.590,237.394 214.400 M169.381 181.300 L 167.800 183.000 169.500 181.419 C 171.081 179.948,171.384 179.600,171.081 179.600 C 171.016 179.600,170.251 180.365,169.381 181.300 M280.975 185.300 L 279.800 186.600 281.100 185.425 C 281.815 184.779,282.400 184.194,282.400 184.125 C 282.400 183.816,282.070 184.088,280.975 185.300 M122.115 190.296 C 123.388 190.376,125.368 190.375,126.515 190.294 C 127.662 190.214,126.620 190.149,124.200 190.150 C 121.780 190.151,120.842 190.216,122.115 190.296 M273.365 204.600 C 273.366 208.560,273.426 210.126,273.498 208.080 C 273.571 206.034,273.571 202.794,273.498 200.880 C 273.424 198.966,273.365 200.640,273.365 204.600 " stroke="none" fill="#3c7944" fill-rule="evenodd"></path><path id="path3" d="M82.267 103.867 C 81.896 104.237,81.929 279.909,82.300 280.138 C 82.465 280.240,82.600 240.561,82.600 191.962 C 82.600 143.363,82.585 103.600,82.567 103.600 C 82.548 103.600,82.413 103.720,82.267 103.867 M98.300 103.900 C 106.715 103.960,120.485 103.960,128.900 103.900 C 137.315 103.840,130.430 103.790,113.600 103.790 C 96.770 103.790,89.885 103.840,98.300 103.900 M151.800 104.000 C 153.865 104.341,157.861 104.515,157.567 104.251 C 157.475 104.169,155.690 104.004,153.600 103.885 C 150.890 103.731,150.374 103.764,151.800 104.000 M159.233 104.545 C 159.325 104.625,160.201 104.792,161.179 104.918 C 162.330 105.065,162.754 105.016,162.379 104.779 C 161.845 104.440,158.858 104.219,159.233 104.545 M164.833 105.343 C 164.925 105.421,165.630 105.601,166.400 105.742 C 167.385 105.923,167.622 105.882,167.200 105.606 C 166.658 105.250,164.437 105.003,164.833 105.343 M169.600 106.400 C 171.142 106.894,171.964 106.894,171.200 106.400 C 170.870 106.187,170.150 106.027,169.600 106.046 L 168.600 106.080 169.600 106.400 M173.000 107.200 C 173.440 107.389,174.070 107.544,174.400 107.544 C 174.778 107.544,174.704 107.417,174.200 107.200 C 173.760 107.011,173.130 106.856,172.800 106.856 C 172.422 106.856,172.496 106.983,173.000 107.200 M181.633 110.153 C 182.041 110.527,187.600 113.189,187.600 113.010 C 187.600 112.787,182.178 110.000,181.743 110.000 C 181.591 110.000,181.542 110.069,181.633 110.153 M188.600 113.811 C 189.040 114.169,189.940 114.726,190.600 115.050 C 191.722 115.601,191.748 115.597,191.000 114.989 C 190.560 114.631,189.660 114.074,189.000 113.750 C 187.878 113.199,187.852 113.203,188.600 113.811 M194.800 117.867 C 197.998 120.576,201.846 124.620,204.199 127.747 C 206.487 130.787,207.673 131.975,205.949 129.500 C 202.727 124.874,197.344 119.209,194.200 117.134 C 193.540 116.698,193.810 117.028,194.800 117.867 M207.386 132.300 C 207.735 133.015,208.106 133.600,208.210 133.600 C 208.608 133.600,208.352 132.963,207.567 132.000 L 206.752 131.000 207.386 132.300 M147.000 132.823 C 147.880 133.005,149.050 133.143,149.600 133.130 C 151.188 133.091,148.565 132.495,146.800 132.493 L 145.400 132.492 147.000 132.823 M151.233 133.344 C 151.325 133.424,152.210 133.596,153.200 133.727 C 154.402 133.886,154.734 133.847,154.200 133.610 C 153.436 133.272,150.886 133.043,151.233 133.344 M119.293 162.300 C 119.242 177.535,119.335 190.000,119.500 190.000 C 119.772 190.000,119.768 169.829,119.492 144.400 C 119.433 139.010,119.344 147.065,119.293 162.300 M160.468 135.801 C 160.892 136.225,164.569 137.965,164.720 137.813 C 164.808 137.726,163.968 137.192,162.853 136.627 C 160.957 135.666,160.002 135.336,160.468 135.801 M168.415 140.424 C 168.407 140.547,169.286 141.567,170.370 142.691 C 171.508 143.872,173.039 146.142,173.997 148.067 C 174.908 149.900,175.532 150.950,175.382 150.400 C 174.652 147.720,168.512 138.929,168.415 140.424 M212.434 144.400 C 212.446 144.730,212.611 145.360,212.800 145.800 L 213.144 146.600 213.166 145.800 C 213.178 145.360,213.013 144.730,212.800 144.400 C 212.455 143.867,212.415 143.867,212.434 144.400 M307.400 145.200 C 306.015 145.425,306.656 145.462,309.485 145.320 C 311.732 145.208,314.837 145.243,316.385 145.399 L 319.200 145.681 319.295 159.941 L 319.389 174.200 319.500 160.025 C 319.567 151.411,319.461 145.701,319.229 145.469 C 318.736 144.976,310.002 144.777,307.400 145.200 M247.100 145.482 C 247.595 145.578,248.405 145.578,248.900 145.482 C 249.395 145.387,248.990 145.309,248.000 145.309 C 247.010 145.309,246.605 145.387,247.100 145.482 M268.400 145.572 L 271.400 145.800 271.501 157.400 C 271.610 169.839,271.678 170.578,272.598 169.361 C 272.915 168.943,273.175 168.420,273.175 168.200 C 273.175 167.980,272.910 168.149,272.587 168.576 C 272.066 169.265,272.000 168.057,272.000 157.909 C 272.000 144.084,272.308 145.181,268.457 145.272 L 265.400 145.344 268.400 145.572 M236.985 146.100 C 236.880 146.375,236.841 173.870,236.897 207.200 L 237.000 267.800 237.200 206.700 C 237.310 173.095,237.349 145.600,237.287 145.600 C 237.226 145.600,237.089 145.825,236.985 146.100 M301.600 145.995 C 301.191 146.255,301.510 146.299,302.600 146.132 C 304.577 145.829,304.914 145.598,303.367 145.606 C 302.725 145.609,301.930 145.784,301.600 145.995 M298.400 146.800 C 297.605 147.314,298.604 147.314,299.800 146.800 L 300.600 146.456 299.800 146.434 C 299.360 146.422,298.730 146.587,298.400 146.800 M213.287 147.600 C 213.291 148.150,213.432 149.140,213.600 149.800 L 213.905 151.000 213.913 149.800 C 213.917 149.140,213.776 148.150,213.600 147.600 L 213.280 146.600 213.287 147.600 M287.926 151.561 C 286.919 152.199,285.964 152.934,285.803 153.194 C 285.643 153.454,286.521 152.996,287.756 152.177 C 289.743 150.858,290.289 150.400,289.878 150.400 C 289.811 150.400,288.933 150.922,287.926 151.561 M214.200 160.317 C 214.200 165.441,214.317 169.221,214.460 168.717 C 214.801 167.514,214.805 155.568,214.465 153.000 C 214.319 151.900,214.200 155.192,214.200 160.317 M175.668 152.200 C 175.662 152.640,175.811 153.360,176.000 153.800 C 176.438 154.819,176.438 153.768,176.000 152.400 C 175.743 151.596,175.677 151.557,175.668 152.200 M282.009 156.300 C 279.139 158.919,274.993 164.060,273.729 166.569 C 272.807 168.398,273.629 167.397,276.002 163.800 C 277.163 162.040,279.724 159.025,281.692 157.100 C 285.962 152.924,286.105 152.563,282.009 156.300 M176.596 161.400 C 176.598 165.145,176.712 167.053,176.870 166.000 C 177.219 163.680,177.217 159.099,176.866 156.800 C 176.704 155.737,176.594 157.620,176.596 161.400 M175.800 169.200 C 175.648 169.891,175.607 170.541,175.709 170.642 C 175.811 170.744,176.009 170.253,176.150 169.550 C 176.483 167.883,176.160 167.560,175.800 169.200 M213.667 171.250 C 213.630 171.828,213.505 172.908,213.389 173.650 C 213.196 174.886,213.215 174.917,213.608 174.014 C 213.845 173.471,213.970 172.391,213.886 171.614 C 213.777 170.592,213.716 170.491,213.667 171.250 M304.400 174.767 C 303.630 174.911,306.420 174.967,310.600 174.891 C 314.780 174.815,318.470 174.695,318.800 174.623 C 319.975 174.368,305.774 174.510,304.400 174.767 M172.753 176.700 C 172.251 177.525,170.752 179.384,169.420 180.830 C 167.022 183.437,167.026 183.435,169.869 180.571 C 171.447 178.981,173.026 177.123,173.379 176.441 C 174.272 174.714,173.856 174.887,172.753 176.700 M212.849 175.600 C 212.816 175.930,212.689 176.650,212.567 177.200 C 212.375 178.064,212.407 178.103,212.799 177.488 C 213.048 177.097,213.175 176.377,213.081 175.888 C 212.986 175.400,212.882 175.270,212.849 175.600 M299.400 175.600 C 298.381 176.038,299.432 176.038,300.800 175.600 C 301.604 175.343,301.643 175.277,301.000 175.268 C 300.560 175.262,299.840 175.411,299.400 175.600 M296.200 176.400 L 295.400 176.744 296.200 176.766 C 296.640 176.778,297.270 176.613,297.600 176.400 C 298.395 175.886,297.396 175.886,296.200 176.400 M211.800 179.600 C 211.650 180.073,211.617 180.550,211.727 180.660 C 211.837 180.770,212.050 180.473,212.200 180.000 C 212.350 179.527,212.383 179.050,212.273 178.940 C 212.163 178.830,211.950 179.127,211.800 179.600 M282.089 184.700 C 278.971 187.761,278.967 187.767,281.765 185.225 C 283.324 183.808,284.864 182.413,285.186 182.125 C 285.508 181.836,285.654 181.600,285.509 181.600 C 285.365 181.600,283.826 182.995,282.089 184.700 M163.600 185.233 L 162.600 186.048 163.900 185.414 C 164.615 185.065,165.200 184.694,165.200 184.590 C 165.200 184.192,164.563 184.448,163.600 185.233 M208.682 187.011 C 208.092 188.215,207.694 189.200,207.798 189.200 C 208.067 189.200,210.084 185.151,209.905 184.971 C 209.823 184.889,209.273 185.807,208.682 187.011 M160.200 186.829 C 159.320 187.252,159.050 187.486,159.600 187.349 C 160.733 187.067,162.812 186.025,162.200 186.046 C 161.980 186.053,161.080 186.406,160.200 186.829 M153.200 188.800 L 152.200 189.120 153.200 189.132 C 153.750 189.138,154.560 188.989,155.000 188.800 L 155.800 188.456 155.000 188.468 C 154.560 188.474,153.750 188.624,153.200 188.800 M277.010 190.300 C 275.668 192.123,273.784 196.318,274.145 196.679 C 274.241 196.774,274.615 195.958,274.978 194.865 C 275.341 193.772,276.344 191.870,277.207 190.639 C 279.114 187.916,278.960 187.650,277.010 190.300 M146.000 189.600 L 143.800 189.870 145.800 189.900 C 146.900 189.916,148.700 189.790,149.800 189.618 L 151.800 189.307 150.000 189.319 C 149.010 189.325,147.210 189.452,146.000 189.600 M205.023 193.044 C 202.989 196.108,197.664 201.580,194.124 204.244 C 190.960 206.626,190.065 207.664,192.983 205.569 C 198.374 201.698,203.846 195.945,206.556 191.300 C 207.383 189.881,206.319 191.093,205.023 193.044 M188.300 208.229 C 187.695 208.557,187.200 208.910,187.200 209.013 C 187.200 209.399,187.832 209.157,188.800 208.400 C 189.989 207.470,189.811 207.409,188.300 208.229 M183.600 210.800 C 181.950 211.658,180.739 212.369,180.910 212.380 C 181.335 212.407,186.800 209.638,186.800 209.395 C 186.800 209.125,186.932 209.067,183.600 210.800 M273.391 245.800 C 273.391 264.720,273.440 272.401,273.500 262.870 C 273.560 253.338,273.560 237.858,273.500 228.470 C 273.440 219.081,273.391 226.880,273.391 245.800 M174.200 214.400 L 173.400 214.744 174.200 214.766 C 174.640 214.778,175.270 214.613,175.600 214.400 C 176.395 213.886,175.396 213.886,174.200 214.400 M171.400 215.200 L 170.600 215.544 171.400 215.566 C 171.840 215.578,172.470 215.413,172.800 215.200 C 173.595 214.686,172.596 214.686,171.400 215.200 M168.000 216.000 C 167.196 216.257,167.157 216.323,167.800 216.332 C 168.240 216.338,168.960 216.189,169.400 216.000 C 170.419 215.562,169.368 215.562,168.000 216.000 M163.600 216.800 L 162.200 217.095 163.600 217.141 C 164.370 217.167,165.270 217.013,165.600 216.800 C 166.327 216.330,165.833 216.330,163.600 216.800 M157.800 217.600 L 155.800 217.874 157.800 217.931 C 158.900 217.962,160.070 217.813,160.400 217.600 C 161.096 217.150,161.079 217.150,157.800 217.600 M119.387 218.500 C 119.283 218.775,119.154 232.770,119.099 249.600 L 119.000 280.200 116.000 280.428 L 113.000 280.656 115.851 280.728 C 119.941 280.831,119.581 283.783,119.697 249.162 L 119.800 218.600 137.600 218.394 L 155.400 218.187 137.487 218.094 C 123.455 218.020,119.534 218.108,119.387 218.500 M237.122 273.821 C 237.055 276.803,237.114 279.548,237.253 279.921 C 237.392 280.294,237.533 277.855,237.566 274.500 C 237.599 271.145,237.540 268.400,237.434 268.400 C 237.329 268.400,237.189 270.839,237.122 273.821 " stroke="none" fill="#336a38" fill-rule="evenodd"></path><path id="path4" d="M154.311 104.693 C 155.251 104.778,156.691 104.777,157.511 104.691 C 158.330 104.605,157.560 104.536,155.800 104.537 C 154.040 104.539,153.370 104.609,154.311 104.693 M160.600 105.200 C 161.260 105.368,162.250 105.505,162.800 105.505 C 163.692 105.505,163.670 105.472,162.600 105.200 C 161.940 105.032,160.950 104.895,160.400 104.895 C 159.508 104.895,159.530 104.928,160.600 105.200 M165.600 106.000 C 166.150 106.176,167.050 106.317,167.600 106.313 C 168.498 106.306,168.478 106.274,167.400 106.000 C 165.708 105.569,164.256 105.569,165.600 106.000 M181.695 110.620 C 181.858 110.787,182.758 111.267,183.695 111.685 C 184.633 112.104,185.220 112.265,185.000 112.044 C 184.780 111.823,183.880 111.343,183.000 110.979 C 182.120 110.614,181.533 110.453,181.695 110.620 M185.633 112.546 C 186.252 113.087,193.204 117.129,193.028 116.845 C 192.782 116.447,186.136 112.400,185.728 112.400 C 185.584 112.400,185.542 112.466,185.633 112.546 M198.324 121.852 C 201.511 125.023,203.877 127.810,205.448 130.243 C 208.805 135.442,208.882 135.550,208.147 134.000 C 206.377 130.271,201.755 124.385,197.547 120.500 C 193.441 116.709,193.823 117.374,198.324 121.852 M118.984 132.500 C 118.493 133.786,119.006 190.135,119.510 190.237 C 119.791 190.294,119.836 190.249,119.610 190.137 C 119.336 190.001,119.200 180.415,119.200 161.172 L 119.200 132.410 133.900 132.300 L 148.600 132.190 133.887 132.095 C 122.415 132.021,119.133 132.110,118.984 132.500 M150.833 132.947 C 150.925 133.028,151.879 133.188,152.954 133.304 C 154.149 133.432,154.693 133.378,154.354 133.163 C 153.835 132.835,150.471 132.628,150.833 132.947 M157.384 134.404 C 158.695 134.823,159.830 135.103,159.906 135.028 C 160.107 134.826,156.367 133.596,155.629 133.622 C 155.283 133.633,156.073 133.986,157.384 134.404 M160.433 135.343 C 160.946 135.784,164.804 137.530,164.625 137.240 C 164.406 136.885,161.029 135.200,160.538 135.200 C 160.389 135.200,160.342 135.264,160.433 135.343 M208.828 135.800 C 208.828 136.020,209.086 136.650,209.400 137.200 C 209.714 137.750,209.972 138.020,209.972 137.800 C 209.972 137.580,209.714 136.950,209.400 136.400 C 209.086 135.850,208.828 135.580,208.828 135.800 M210.416 139.325 C 210.392 139.811,211.667 143.600,211.854 143.600 C 211.943 143.600,211.893 143.105,211.743 142.500 C 211.422 141.208,210.438 138.854,210.416 139.325 M170.400 141.938 C 170.400 142.124,170.788 142.619,171.262 143.038 L 172.124 143.800 171.416 142.700 C 170.686 141.566,170.400 141.351,170.400 141.938 M173.093 145.597 C 173.668 146.476,174.210 147.123,174.298 147.035 C 174.510 146.823,172.678 144.011,172.324 144.005 C 172.171 144.002,172.518 144.719,173.093 145.597 M212.236 145.200 C 212.825 148.452,213.106 149.441,213.148 148.400 C 213.170 147.850,212.917 146.590,212.585 145.600 C 212.093 144.128,212.029 144.055,212.236 145.200 M254.494 145.898 L 271.188 146.009 271.294 158.104 C 271.408 171.093,271.560 171.904,273.314 168.900 C 273.732 168.185,273.972 167.600,273.847 167.600 C 273.722 167.600,273.341 168.140,273.000 168.800 C 271.761 171.196,271.613 170.116,271.506 157.900 L 271.400 145.800 254.600 145.793 L 237.800 145.787 254.494 145.898 M306.700 145.889 C 307.415 145.978,308.585 145.978,309.300 145.889 C 310.015 145.801,309.430 145.728,308.000 145.728 C 306.570 145.728,305.985 145.801,306.700 145.889 M317.300 145.891 L 318.800 146.048 318.800 160.024 L 318.800 174.000 311.900 174.040 C 308.105 174.062,304.583 174.197,304.072 174.340 C 303.562 174.483,306.532 174.546,310.672 174.481 C 314.813 174.415,318.425 174.286,318.700 174.193 C 319.087 174.063,319.200 170.826,319.200 159.813 L 319.200 145.600 317.500 145.667 L 315.800 145.734 317.300 145.891 M301.600 146.400 C 300.256 146.831,301.708 146.831,303.400 146.400 C 304.478 146.126,304.498 146.094,303.600 146.087 C 303.050 146.083,302.150 146.224,301.600 146.400 M298.600 147.200 C 298.096 147.417,298.022 147.544,298.400 147.544 C 298.730 147.544,299.360 147.389,299.800 147.200 C 300.304 146.983,300.378 146.856,300.000 146.856 C 299.670 146.856,299.040 147.011,298.600 147.200 M294.483 148.669 C 293.098 149.235,292.033 149.766,292.115 149.849 C 292.259 149.992,297.222 148.091,297.567 147.760 C 297.968 147.375,296.818 147.714,294.483 148.669 M82.544 151.600 C 82.544 153.690,82.612 154.545,82.694 153.500 C 82.776 152.455,82.776 150.745,82.694 149.700 C 82.612 148.655,82.544 149.510,82.544 151.600 M213.521 151.600 C 213.674 152.810,213.799 157.400,213.797 161.800 C 213.795 167.688,213.882 169.166,214.126 167.400 C 214.528 164.487,214.167 152.271,213.628 150.600 C 213.334 149.687,213.309 149.927,213.521 151.600 M288.829 151.500 C 285.700 153.339,278.458 160.161,276.431 163.180 C 273.485 167.566,273.870 167.522,276.961 163.118 C 279.430 159.602,285.595 153.802,288.941 151.847 C 291.241 150.504,291.937 150.000,291.491 150.000 C 291.431 150.000,290.233 150.675,288.829 151.500 M176.244 153.000 C 176.573 154.471,176.802 154.790,176.794 153.767 C 176.791 153.345,176.605 152.730,176.382 152.400 C 176.085 151.962,176.048 152.124,176.244 153.000 M177.000 161.657 C 177.000 165.012,177.114 167.227,177.253 166.579 C 177.586 165.023,177.592 157.653,177.260 156.479 C 177.117 155.972,177.000 158.302,177.000 161.657 M237.314 158.600 C 237.317 159.700,237.395 160.103,237.487 159.495 C 237.579 158.886,237.577 157.986,237.482 157.495 C 237.387 157.003,237.311 157.500,237.314 158.600 M213.015 172.215 C 212.861 173.454,212.824 174.557,212.934 174.667 C 213.044 174.777,213.261 173.854,213.415 172.615 C 213.570 171.377,213.607 170.273,213.497 170.163 C 213.387 170.053,213.170 170.977,213.015 172.215 M299.221 175.179 C 298.846 175.416,299.270 175.465,300.421 175.318 C 301.399 175.192,302.275 175.025,302.367 174.945 C 302.742 174.619,299.755 174.840,299.221 175.179 M212.202 176.500 C 212.058 177.215,211.855 178.160,211.751 178.600 C 211.604 179.220,211.645 179.265,211.930 178.800 C 212.349 178.116,212.932 175.200,212.650 175.200 C 212.547 175.200,212.346 175.785,212.202 176.500 M296.200 176.000 C 295.181 176.438,296.232 176.438,297.600 176.000 C 298.404 175.743,298.443 175.677,297.800 175.668 C 297.360 175.662,296.640 175.811,296.200 176.000 M169.699 181.056 C 168.104 182.706,167.294 183.699,167.899 183.263 C 168.933 182.518,170.452 180.968,172.174 178.900 C 173.601 177.187,172.588 178.070,169.699 181.056 M289.500 178.629 C 287.949 179.470,288.125 179.761,289.700 178.959 C 291.208 178.193,291.475 177.994,290.967 178.016 C 290.765 178.025,290.105 178.301,289.500 178.629 M210.200 182.661 C 209.864 183.465,209.682 184.215,209.795 184.328 C 209.908 184.441,210.000 184.435,210.000 184.316 C 210.000 184.196,210.272 183.446,210.605 182.649 C 210.938 181.852,211.121 181.200,211.011 181.200 C 210.901 181.200,210.536 181.858,210.200 182.661 M281.096 184.900 C 278.398 187.561,274.511 192.644,274.887 193.020 C 274.974 193.107,275.827 191.988,276.784 190.533 C 277.740 189.078,279.861 186.563,281.496 184.944 C 283.131 183.325,284.371 182.000,284.252 182.000 C 284.133 182.000,282.713 183.305,281.096 184.900 M163.800 185.600 C 163.140 186.037,162.780 186.392,163.000 186.388 C 163.401 186.382,165.576 184.823,165.200 184.812 C 165.090 184.808,164.460 185.163,163.800 185.600 M160.400 187.200 C 159.410 187.615,158.803 187.965,159.051 187.978 C 159.618 188.006,162.400 186.857,162.400 186.595 C 162.400 186.348,162.512 186.314,160.400 187.200 M206.011 190.729 C 203.159 195.237,198.889 200.003,195.015 203.000 C 190.979 206.122,189.860 207.091,191.600 205.956 C 197.579 202.057,209.639 188.700,208.344 187.412 C 208.265 187.333,207.215 188.825,206.011 190.729 M153.600 189.200 C 152.233 189.488,152.228 189.495,153.400 189.519 C 154.060 189.533,154.960 189.389,155.400 189.200 C 156.362 188.787,155.564 188.787,153.600 189.200 M150.100 189.876 C 150.485 189.976,151.115 189.976,151.500 189.876 C 151.885 189.775,151.570 189.693,150.800 189.693 C 150.030 189.693,149.715 189.775,150.100 189.876 M133.276 190.299 C 136.068 190.367,140.748 190.368,143.676 190.299 C 146.604 190.231,144.320 190.175,138.600 190.174 C 132.880 190.174,130.484 190.230,133.276 190.299 M274.200 194.400 C 274.050 194.873,274.017 195.350,274.127 195.460 C 274.237 195.570,274.450 195.273,274.600 194.800 C 274.750 194.327,274.783 193.850,274.673 193.740 C 274.563 193.630,274.350 193.927,274.200 194.400 M187.312 208.299 C 185.944 209.101,184.887 209.820,184.963 209.896 C 185.127 210.061,190.000 207.241,190.000 206.981 C 190.000 206.719,190.027 206.706,187.312 208.299 M180.000 212.000 C 179.230 212.422,178.780 212.766,179.000 212.766 C 179.220 212.766,180.030 212.422,180.800 212.000 C 181.570 211.578,182.020 211.234,181.800 211.234 C 181.580 211.234,180.770 211.578,180.000 212.000 M174.200 214.000 C 173.696 214.217,173.622 214.344,174.000 214.344 C 174.330 214.344,174.960 214.189,175.400 214.000 C 175.904 213.783,175.978 213.656,175.600 213.656 C 175.270 213.656,174.640 213.811,174.200 214.000 M171.400 214.800 C 170.896 215.017,170.822 215.144,171.200 215.144 C 171.530 215.144,172.160 214.989,172.600 214.800 C 173.104 214.583,173.178 214.456,172.800 214.456 C 172.470 214.456,171.840 214.611,171.400 214.800 M167.800 215.619 C 167.242 215.871,167.485 215.907,168.600 215.738 C 169.480 215.604,170.275 215.428,170.367 215.347 C 170.710 215.044,168.568 215.271,167.800 215.619 M163.400 216.400 C 162.330 216.672,162.308 216.705,163.200 216.705 C 163.750 216.705,164.740 216.568,165.400 216.400 C 166.470 216.128,166.492 216.095,165.600 216.095 C 165.050 216.095,164.060 216.232,163.400 216.400 M157.600 217.200 C 155.951 217.456,155.917 217.483,157.200 217.517 C 157.970 217.537,159.320 217.405,160.200 217.223 C 162.266 216.796,160.312 216.778,157.600 217.200 M118.984 218.100 C 118.879 218.375,118.841 232.370,118.899 249.200 L 119.005 279.800 119.103 248.904 L 119.200 218.008 137.300 217.900 L 155.400 217.792 137.287 217.696 C 123.095 217.621,119.134 217.708,118.984 218.100 M272.975 235.200 C 272.975 241.030,273.031 243.415,273.099 240.500 C 273.167 237.585,273.167 232.815,273.099 229.900 C 273.031 226.985,272.975 229.370,272.975 235.200 M272.895 264.896 L 272.800 279.991 256.300 280.100 L 239.800 280.209 256.313 280.305 C 269.252 280.379,272.867 280.291,273.018 279.898 C 273.123 279.623,273.161 272.738,273.100 264.598 L 272.990 249.800 272.895 264.896 M92.727 280.300 C 97.637 280.363,105.557 280.363,110.327 280.300 C 115.097 280.236,111.080 280.184,101.400 280.184 C 91.720 280.184,87.817 280.236,92.727 280.300 " stroke="none" fill="#449248" fill-rule="evenodd"></path></g></svg>